<svg width="180" height="180" viewBox="0 0 180 180" fill="none" xmlns="http://www.w3.org/2000/svg">
<g id="logo">
<g id="logo_2">
<path id="Subtract" fill-rule="evenodd" clip-rule="evenodd" d="M90 180C139.706 180 180 139.706 180 90C180 40.2944 139.706 0 90 0C40.2944 0 0 40.2944 0 90C0 139.706 40.2944 180 90 180ZM90 154C125.346 154 154 125.346 154 90C154 54.6538 125.346 26 90 26C54.6538 26 26 54.6538 26 90C26 125.346 54.6538 154 90 154ZM90 150C123.137 150 150 123.137 150 90C150 56.8629 123.137 30 90 30C56.8629 30 30 56.8629 30 90C30 123.137 56.8629 150 90 150ZM90 120C106.569 120 120 106.569 120 90C120 73.4315 106.569 60 90 60C73.4315 60 60 73.4315 60 90C60 106.569 73.4315 120 90 120Z" fill="#007BFF"/>
</g>
</g>
</svg>
